<svg width="288" height="200" viewBox="0 0 288 200" fill="none" xmlns="http://www.w3.org/2000/svg">
<mask id="mask0_1_2" style="mask-type:luminance" maskUnits="userSpaceOnUse" x="0" y="1" width="288" height="199">
<path d="M26.3298 1.11739H260.899C261.761 1.11739 262.623 1.15812 263.479 1.2396C264.335 1.3269 265.191 1.45493 266.036 1.6237C266.88 1.78665 267.719 1.99616 268.54 2.24641C269.367 2.49666 270.177 2.78764 270.975 3.11936C271.772 3.44527 272.547 3.81773 273.31 4.21929C274.073 4.62667 274.807 5.06897 275.523 5.552C276.245 6.02922 276.933 6.54135 277.602 7.0884C278.266 7.63545 278.907 8.21161 279.519 8.82268C280.124 9.42792 280.707 10.0681 281.248 10.7374C281.796 11.4008 282.308 12.0933 282.792 12.8092C283.269 13.525 283.712 14.2641 284.12 15.0207C284.527 15.783 284.894 16.5629 285.221 17.3544C285.552 18.1517 285.844 18.9606 286.094 19.787C286.345 20.6134 286.554 21.4456 286.723 22.2953C286.892 23.1391 287.014 23.9888 287.102 24.8443C287.183 25.7056 287.23 26.5611 287.23 27.4225V142.234C287.23 143.095 287.183 143.95 287.102 144.812C287.014 145.667 286.892 146.517 286.723 147.367C286.554 148.21 286.345 149.043 286.094 149.869C285.844 150.695 285.552 151.504 285.221 152.302C284.894 153.099 284.527 153.873 284.12 154.635C283.712 155.392 283.269 156.131 282.792 156.847C282.308 157.563 281.796 158.255 281.248 158.925C280.707 159.588 280.124 160.228 279.519 160.833C278.907 161.444 278.266 162.021 277.602 162.568C276.933 163.115 276.245 163.627 275.529 164.11C274.807 164.587 274.073 165.029 273.31 165.437C272.547 165.844 271.772 166.211 270.975 166.537C270.177 166.868 269.367 167.159 268.54 167.41C267.719 167.66 266.88 167.869 266.036 168.038C265.191 168.207 264.335 168.329 263.479 168.416C262.623 168.498 261.761 168.544 260.899 168.544C260.27 168.544 259.647 168.603 259.029 168.725C258.412 168.847 257.818 169.028 257.235 169.272C256.653 169.511 256.1 169.807 255.581 170.157C255.057 170.506 254.574 170.901 254.131 171.344C253.683 171.786 253.287 172.269 252.937 172.793C252.588 173.317 252.296 173.87 252.052 174.446C251.813 175.028 251.632 175.627 251.51 176.244C251.388 176.861 251.324 177.484 251.324 178.106V195.647C251.335 196.462 251.12 197.218 250.695 197.911C250.264 198.603 249.687 199.133 248.953 199.488C248.219 199.843 247.445 199.983 246.635 199.889C245.826 199.802 245.104 199.505 244.463 198.999L215.901 176.512C212.849 174.056 209.477 172.176 205.779 170.878C202.086 169.58 198.277 168.934 194.357 168.94H26.3298C25.462 168.94 24.5942 168.899 23.7263 168.812C22.8585 168.725 21.9966 168.597 21.1462 168.428C20.2901 168.253 19.4514 168.044 18.6185 167.788C17.7857 167.532 16.9645 167.235 16.1607 166.898C15.357 166.566 14.5766 166.187 13.8078 165.774C13.0448 165.361 12.2993 164.913 11.5771 164.424C10.8549 163.935 10.1618 163.417 9.49205 162.859C8.82227 162.3 8.18161 161.712 7.57007 161.095C6.95853 160.473 6.38193 159.827 5.83446 159.146C5.28699 158.471 4.77446 157.766 4.29688 157.039C3.82512 156.311 3.38248 155.561 2.98061 154.793C2.57874 154.018 2.21764 153.233 1.89149 152.424C1.56533 151.615 1.28577 150.794 1.04116 149.956C0.796541 149.124 0.59852 148.274 0.441266 147.419C0.278189 146.563 0.167529 145.702 0.0918155 144.835C0.0219253 143.968 -0.0130202 143.101 0.00445273 142.234V27.4225C0.00445273 26.5611 0.0452228 25.7056 0.126761 24.8443C0.214124 23.9888 0.342256 23.1391 0.511157 22.2953C0.674234 21.4456 0.883904 20.6134 1.13434 19.787C1.38478 18.9606 1.67599 18.1517 2.00797 17.3544C2.33413 16.5629 2.70687 15.783 3.10874 15.0207C3.51644 14.2641 3.95907 13.525 4.44248 12.8092C4.92006 12.0933 5.43259 11.4008 5.98006 10.7374C6.52754 10.0681 7.10413 9.42792 7.71567 8.82268C8.32139 8.21161 8.96205 7.63545 9.626 7.0884C10.2958 6.54135 10.9889 6.02922 11.7052 5.552C12.4216 5.06897 13.1613 4.62667 13.9184 4.21929C14.6814 3.81773 15.4618 3.44527 16.2539 3.11936C17.0518 2.78764 17.8614 2.49666 18.6884 2.24641C19.5155 1.99616 20.3483 1.78665 21.1928 1.6237C22.0432 1.45493 22.8935 1.3269 23.7496 1.2396C24.6116 1.15812 25.4678 1.11739 26.3298 1.11739Z" fill="white"/>
</mask>
<g mask="url(#mask0_1_2)">
<path d="M287.23 1.11739V199.983H-0.0130615V1.11739H287.23Z" fill="url(#paint0_linear_1_2)"/>
</g>
<mask id="mask1_1_2" style="mask-type:luminance" maskUnits="userSpaceOnUse" x="71" y="70" width="26" height="26">
<path d="M71.5675 70.3835H96.9143V95.7109H71.5675V70.3835Z" fill="white"/>
</mask>
<g mask="url(#mask1_1_2)">
<mask id="mask2_1_2" style="mask-type:luminance" maskUnits="userSpaceOnUse" x="72" y="71" width="25" height="25">
<path d="M96.3261 83.7107C96.3261 84.4963 96.2504 85.2762 96.099 86.0444C95.9475 86.8126 95.7204 87.5633 95.4175 88.2849C95.1147 89.0124 94.7477 89.705 94.3109 90.3568C93.8741 91.0086 93.3791 91.6138 92.8199 92.1667C92.2666 92.7254 91.6609 93.2201 91.0086 93.6565C90.3563 94.093 89.6632 94.4596 88.941 94.7623C88.213 95.0591 87.4675 95.286 86.6929 95.4432C85.9241 95.5945 85.1437 95.6701 84.3574 95.6701C83.577 95.6701 82.7965 95.5945 82.0277 95.4432C81.2531 95.286 80.5076 95.0591 79.7796 94.7623C79.0516 94.4596 78.3643 94.093 77.712 93.6565C77.0597 93.2201 76.454 92.7254 75.8949 92.1667C75.3416 91.6138 74.8465 91.0086 74.4097 90.3568C73.9729 89.705 73.606 89.0124 73.3031 88.2849C73.0002 87.5633 72.7731 86.8126 72.6217 86.0444C72.4702 85.2762 72.3945 84.4963 72.3945 83.7107C72.3945 82.925 72.4702 82.151 72.6217 81.377C72.7731 80.6088 73.0002 79.858 73.3031 79.1364C73.606 78.4089 73.9729 77.7222 74.4097 77.0646C74.8465 76.4127 75.3416 75.8075 75.8949 75.2546C76.454 74.7018 77.0597 74.2013 77.712 73.7648C78.3643 73.3341 79.0516 72.9617 79.7796 72.6649C80.5076 72.3622 81.2531 72.1353 82.0277 71.9839C82.7965 71.8268 83.577 71.7512 84.3574 71.7512C85.1437 71.7512 85.9241 71.8268 86.6929 71.9839C87.4675 72.1353 88.213 72.3622 88.941 72.6649C89.6632 72.9617 90.3563 73.3341 91.0086 73.7648C91.6609 74.2013 92.2666 74.7018 92.8199 75.2546C93.3791 75.8075 93.8741 76.4127 94.3109 77.0646C94.7477 77.7222 95.1147 78.4089 95.4175 79.1364C95.7204 79.858 95.9475 80.6088 96.099 81.377C96.2504 82.151 96.3261 82.925 96.3261 83.7107Z" fill="white"/>
</mask>
<g mask="url(#mask2_1_2)">
<path d="M72.3945 71.7512V95.6701H96.3261V71.7512H72.3945Z" fill="url(#paint1_linear_1_2)"/>
</g>
</g>
<mask id="mask3_1_2" style="mask-type:luminance" maskUnits="userSpaceOnUse" x="131" y="70" width="26" height="26">
<path d="M131.58 70.3835H156.927V95.7109H131.58V70.3835Z" fill="white"/>
</mask>
<g mask="url(#mask3_1_2)">
<mask id="mask4_1_2" style="mask-type:luminance" maskUnits="userSpaceOnUse" x="132" y="71" width="25" height="25">
<path d="M156.537 83.7107C156.537 84.4963 156.461 85.2762 156.309 86.0444C156.158 86.8126 155.931 87.5633 155.628 88.2849C155.325 89.0124 154.958 89.705 154.521 90.3568C154.085 91.0086 153.59 91.6138 153.036 92.1667C152.477 92.7254 151.871 93.2201 151.219 93.6565C150.567 94.093 149.88 94.4596 149.151 94.7623C148.423 95.0591 147.678 95.286 146.909 95.4432C146.135 95.5945 145.36 95.6701 144.574 95.6701C143.787 95.6701 143.007 95.5945 142.238 95.4432C141.464 95.286 140.718 95.0591 139.99 94.7623C139.268 94.4596 138.575 94.093 137.922 93.6565C137.27 93.2201 136.664 92.7254 136.111 92.1667C135.552 91.6138 135.057 91.0086 134.62 90.3568C134.183 89.705 133.816 89.0124 133.514 88.2849C133.217 87.5633 132.989 86.8126 132.832 86.0444C132.681 85.2762 132.605 84.4963 132.605 83.7107C132.605 82.925 132.681 82.151 132.832 81.377C132.989 80.6088 133.217 79.858 133.514 79.1364C133.816 78.4089 134.183 77.7222 134.62 77.0646C135.057 76.4127 135.552 75.8075 136.111 75.2546C136.664 74.7018 137.27 74.2013 137.922 73.7648C138.575 73.3341 139.268 72.9617 139.99 72.6649C140.718 72.3622 141.464 72.1353 142.238 71.9839C143.007 71.8268 143.787 71.7512 144.574 71.7512C145.36 71.7512 146.135 71.8268 146.909 71.9839C147.678 72.1353 148.423 72.3622 149.151 72.6649C149.88 72.9617 150.567 73.3341 151.219 73.7648C151.871 74.2013 152.477 74.7018 153.036 75.2546C153.59 75.8075 154.085 76.4127 154.521 77.0646C154.958 77.7222 155.325 78.4089 155.628 79.1364C155.931 79.858 156.158 80.6088 156.309 81.377C156.461 82.151 156.537 82.925 156.537 83.7107Z" fill="white"/>
</mask>
<g mask="url(#mask4_1_2)">
<path d="M132.605 71.7512V95.6701H156.537V71.7512H132.605Z" fill="url(#paint2_linear_1_2)"/>
</g>
</g>
<mask id="mask5_1_2" style="mask-type:luminance" maskUnits="userSpaceOnUse" x="191" y="70" width="26" height="26">
<path d="M191.592 70.3835H216.939V95.7109H191.592V70.3835Z" fill="white"/>
</mask>
<g mask="url(#mask5_1_2)">
<mask id="mask6_1_2" style="mask-type:luminance" maskUnits="userSpaceOnUse" x="192" y="71" width="25" height="25">
<path d="M216.753 83.7107C216.753 84.4963 216.671 85.2762 216.52 86.0444C216.368 86.8126 216.141 87.5633 215.838 88.2849C215.541 89.0124 215.169 89.705 214.732 90.3568C214.295 91.0086 213.8 91.6138 213.247 92.1667C212.687 92.7254 212.088 93.2201 211.429 93.6565C210.777 94.093 210.09 94.4596 209.362 94.7623C208.634 95.0591 207.888 95.286 207.119 95.4432C206.345 95.5945 205.57 95.6701 204.784 95.6701C203.998 95.6701 203.217 95.5945 202.449 95.4432C201.68 95.286 200.928 95.0591 200.2 94.7623C199.478 94.4596 198.785 94.093 198.133 93.6565C197.48 93.2201 196.875 92.7254 196.321 92.1667C195.762 91.6138 195.267 91.0086 194.83 90.3568C194.394 89.705 194.027 89.0124 193.724 88.2849C193.427 87.5633 193.2 86.8126 193.042 86.0444C192.891 85.2762 192.815 84.4963 192.815 83.7107C192.815 82.925 192.891 82.151 193.042 81.377C193.2 80.6088 193.427 79.858 193.724 79.1364C194.027 78.4089 194.394 77.7222 194.83 77.0646C195.267 76.4127 195.762 75.8075 196.321 75.2546C196.875 74.7018 197.48 74.2013 198.133 73.7648C198.785 73.3341 199.478 72.9617 200.2 72.6649C200.928 72.3622 201.68 72.1353 202.449 71.9839C203.217 71.8268 203.998 71.7512 204.784 71.7512C205.57 71.7512 206.345 71.8268 207.119 71.9839C207.888 72.1353 208.634 72.3622 209.362 72.6649C210.09 72.9617 210.777 73.3341 211.429 73.7648C212.088 74.2013 212.687 74.7018 213.247 75.2546C213.8 75.8075 214.295 76.4127 214.732 77.0646C215.169 77.7222 215.541 78.4089 215.838 79.1364C216.141 79.858 216.368 80.6088 216.52 81.377C216.671 82.151 216.753 82.925 216.753 83.7107Z" fill="white"/>
</mask>
<g mask="url(#mask6_1_2)">
<path d="M192.815 71.7512V95.6701H216.753V71.7512H192.815Z" fill="url(#paint3_linear_1_2)"/>
</g>
</g>
<defs>
<linearGradient id="paint0_linear_1_2" x1="143.615" y1="199.98" x2="143.615" y2="1.11543" gradientUnits="userSpaceOnUse">
<stop stop-color="#15C7E5"/>
<stop offset="0.015625" stop-color="#15C7E5"/>
<stop offset="0.03125" stop-color="#15C6E5"/>
<stop offset="0.046875" stop-color="#15C6E5"/>
<stop offset="0.0625" stop-color="#14C5E5"/>
<stop offset="0.078125" stop-color="#14C4E5"/>
<stop offset="0.09375" stop-color="#14C4E6"/>
<stop offset="0.109375" stop-color="#13C3E6"/>
<stop offset="0.125" stop-color="#13C3E6"/>
<stop offset="0.140625" stop-color="#13C2E6"/>
<stop offset="0.15625" stop-color="#12C1E6"/>
<stop offset="0.171875" stop-color="#12C1E6"/>
<stop offset="0.1875" stop-color="#12C0E6"/>
<stop offset="0.203125" stop-color="#11C0E6"/>
<stop offset="0.21875" stop-color="#11BFE6"/>
<stop offset="0.234375" stop-color="#11BFE7"/>
<stop offset="0.25" stop-color="#11BEE7"/>
<stop offset="0.265625" stop-color="#10BDE7"/>
<stop offset="0.28125" stop-color="#10BDE7"/>
<stop offset="0.296875" stop-color="#10BCE7"/>
<stop offset="0.3125" stop-color="#0FBCE7"/>
<stop offset="0.328125" stop-color="#0FBBE7"/>
<stop offset="0.34375" stop-color="#0FBBE7"/>
<stop offset="0.359375" stop-color="#0EBAE8"/>
<stop offset="0.375" stop-color="#0EB9E8"/>
<stop offset="0.390625" stop-color="#0EB9E8"/>
<stop offset="0.40625" stop-color="#0EB8E8"/>
<stop offset="0.421875" stop-color="#0DB8E8"/>
<stop offset="0.4375" stop-color="#0DB7E8"/>
<stop offset="0.453125" stop-color="#0DB6E8"/>
<stop offset="0.46875" stop-color="#0CB6E8"/>
<stop offset="0.484375" stop-color="#0CB5E8"/>
<stop offset="0.5" stop-color="#0CB5E9"/>
<stop offset="0.515625" stop-color="#0BB4E9"/>
<stop offset="0.53125" stop-color="#0BB4E9"/>
<stop offset="0.546875" stop-color="#0BB3E9"/>
<stop offset="0.5625" stop-color="#0BB2E9"/>
<stop offset="0.578125" stop-color="#0AB2E9"/>
<stop offset="0.59375" stop-color="#0AB1E9"/>
<stop offset="0.609375" stop-color="#0AB1E9"/>
<stop offset="0.625" stop-color="#09B0EA"/>
<stop offset="0.640625" stop-color="#09B0EA"/>
<stop offset="0.65625" stop-color="#09AFEA"/>
<stop offset="0.671875" stop-color="#08AEEA"/>
<stop offset="0.6875" stop-color="#08AEEA"/>
<stop offset="0.703125" stop-color="#08ADEA"/>
<stop offset="0.71875" stop-color="#07ADEA"/>
<stop offset="0.734375" stop-color="#07ACEA"/>
<stop offset="0.75" stop-color="#07ABEA"/>
<stop offset="0.765625" stop-color="#07ABEB"/>
<stop offset="0.78125" stop-color="#06AAEB"/>
<stop offset="0.796875" stop-color="#06AAEB"/>
<stop offset="0.8125" stop-color="#06A9EB"/>
<stop offset="0.828125" stop-color="#05A9EB"/>
<stop offset="0.84375" stop-color="#05A8EB"/>
<stop offset="0.859375" stop-color="#05A7EB"/>
<stop offset="0.875" stop-color="#04A7EB"/>
<stop offset="0.890625" stop-color="#04A6EC"/>
<stop offset="0.90625" stop-color="#04A6EC"/>
<stop offset="0.921875" stop-color="#04A5EC"/>
<stop offset="0.9375" stop-color="#03A4EC"/>
<stop offset="0.953125" stop-color="#03A4EC"/>
<stop offset="0.96875" stop-color="#03A3EB"/>
<stop offset="0.984375" stop-color="#04A2EB"/>
<stop offset="1" stop-color="#04A1EA"/>
</linearGradient>
<linearGradient id="paint1_linear_1_2" x1="84.3602" y1="95.6702" x2="84.3602" y2="71.7522" gradientUnits="userSpaceOnUse">
<stop stop-color="white"/>
<stop offset="0.25" stop-color="white"/>
<stop offset="0.3125" stop-color="white"/>
<stop offset="0.375" stop-color="#FEFEFE"/>
<stop offset="0.4375" stop-color="#FDFEFE"/>
<stop offset="0.5" stop-color="#FCFDFE"/>
<stop offset="0.5625" stop-color="#FBFDFD"/>
<stop offset="0.625" stop-color="#FAFCFD"/>
<stop offset="0.6875" stop-color="#F9FCFC"/>
<stop offset="0.75" stop-color="#F8FBFC"/>
<stop offset="0.8125" stop-color="#F7FBFB"/>
<stop offset="0.875" stop-color="#F7FAFB"/>
<stop offset="0.9375" stop-color="#F6FAFA"/>
<stop offset="1" stop-color="#F5F9FA"/>
</linearGradient>
<linearGradient id="paint2_linear_1_2" x1="144.572" y1="95.6702" x2="144.572" y2="71.7522" gradientUnits="userSpaceOnUse">
<stop stop-color="white"/>
<stop offset="0.25" stop-color="white"/>
<stop offset="0.3125" stop-color="white"/>
<stop offset="0.375" stop-color="#FEFEFE"/>
<stop offset="0.4375" stop-color="#FDFEFE"/>
<stop offset="0.5" stop-color="#FCFDFE"/>
<stop offset="0.5625" stop-color="#FBFDFD"/>
<stop offset="0.625" stop-color="#FAFCFD"/>
<stop offset="0.6875" stop-color="#F9FCFC"/>
<stop offset="0.75" stop-color="#F8FBFC"/>
<stop offset="0.8125" stop-color="#F7FBFB"/>
<stop offset="0.875" stop-color="#F7FAFB"/>
<stop offset="0.9375" stop-color="#F6FAFA"/>
<stop offset="1" stop-color="#F5F9FA"/>
</linearGradient>
<linearGradient id="paint3_linear_1_2" x1="204.783" y1="95.6702" x2="204.783" y2="71.7522" gradientUnits="userSpaceOnUse">
<stop stop-color="white"/>
<stop offset="0.25" stop-color="white"/>
<stop offset="0.3125" stop-color="white"/>
<stop offset="0.375" stop-color="#FEFEFE"/>
<stop offset="0.4375" stop-color="#FDFEFE"/>
<stop offset="0.5" stop-color="#FCFDFE"/>
<stop offset="0.5625" stop-color="#FBFDFD"/>
<stop offset="0.625" stop-color="#FAFCFD"/>
<stop offset="0.6875" stop-color="#F9FCFC"/>
<stop offset="0.75" stop-color="#F8FBFC"/>
<stop offset="0.8125" stop-color="#F7FBFB"/>
<stop offset="0.875" stop-color="#F7FAFB"/>
<stop offset="0.9375" stop-color="#F6FAFA"/>
<stop offset="1" stop-color="#F5F9FA"/>
</linearGradient>
</defs>
</svg>
