<svg width="310" height="80" viewBox="0 0 310 80" fill="none" xmlns="http://www.w3.org/2000/svg">
<mask id="mask0_24_71" style="mask-type:luminance" maskUnits="userSpaceOnUse" x="9" y="25" width="78" height="55">
<path d="M9 25.5168H86.8065V79.8885H9V25.5168Z" fill="white"/>
</mask>
<g mask="url(#mask0_24_71)">
<mask id="mask1_24_71" style="mask-type:luminance" maskUnits="userSpaceOnUse" x="9" y="25" width="78" height="55">
<path d="M79.6527 25.9092H16.176C15.9427 25.9092 15.7095 25.9203 15.4778 25.9439C15.2461 25.966 15.0144 26.0007 14.7859 26.0464C14.5574 26.0921 14.3304 26.1488 14.1082 26.2166C13.8844 26.2843 13.6653 26.3616 13.4494 26.4514C13.2335 26.5412 13.0238 26.6405 12.8174 26.7509C12.6109 26.8612 12.4123 26.981 12.2169 27.1102C12.023 27.2395 11.8371 27.3781 11.6558 27.5263C11.4761 27.6745 11.3028 27.8305 11.1373 27.996C10.9734 28.1615 10.8157 28.3333 10.6676 28.5145C10.521 28.6942 10.3808 28.8817 10.2515 29.0756C10.1223 29.2694 10.0025 29.4696 9.89217 29.6761C9.78184 29.881 9.68255 30.0922 9.59271 30.3081C9.50445 30.524 9.42564 30.7431 9.35787 30.9669C9.2901 31.1891 9.23336 31.4161 9.18766 31.6446C9.14195 31.8731 9.10885 32.1032 9.08521 32.3365C9.06315 32.5682 9.05054 32.8015 9.05054 33.0347V64.1261C9.05054 64.3594 9.06315 64.5926 9.08521 64.8243C9.10885 65.0576 9.14195 65.2877 9.18766 65.5162C9.23336 65.7447 9.2901 65.9717 9.35787 66.1939C9.42564 66.4177 9.50445 66.6368 9.59271 66.8527C9.68255 67.0686 9.78184 67.2798 9.89217 67.4847C10.0025 67.6912 10.1223 67.8914 10.2515 68.0852C10.3808 68.2791 10.521 68.4666 10.6676 68.6463C10.8157 68.826 10.9734 68.9993 11.1373 69.1648C11.3028 69.3287 11.4761 69.4864 11.6558 69.6345C11.8371 69.7827 12.023 69.9214 12.2169 70.0506C12.4123 70.1798 12.6109 70.2996 12.8174 70.4099C13.0238 70.5203 13.2335 70.6196 13.4494 70.7094C13.6653 70.7977 13.8844 70.8765 14.1082 70.9442C14.3304 71.012 14.5574 71.0687 14.7859 71.1144C15.0144 71.1602 15.2461 71.1948 15.4778 71.2169C15.7095 71.2405 15.9427 71.2516 16.176 71.2516C16.3462 71.2516 16.5149 71.2673 16.6819 71.3004C16.849 71.3351 17.0098 71.384 17.1674 71.4486C17.325 71.5132 17.4731 71.5936 17.615 71.6881C17.7568 71.7827 17.8876 71.8899 18.0074 72.0097C18.1288 72.131 18.2359 72.2618 18.3305 72.4021C18.4251 72.544 18.5039 72.6937 18.5701 72.8513C18.6347 73.0073 18.6836 73.1697 18.7167 73.3367C18.7498 73.5038 18.7671 73.6724 18.7671 73.8426V78.593C18.7639 78.8136 18.8223 79.0169 18.9373 79.2045C19.0539 79.3936 19.21 79.5355 19.4086 79.6316C19.6071 79.7293 19.8168 79.7656 20.0358 79.7419C20.2549 79.7167 20.4503 79.6363 20.6237 79.4992L28.3528 73.4108C29.1708 72.7252 30.0802 72.1972 31.081 71.8268C32.0818 71.4565 33.1157 71.2642 34.1828 71.2516H79.6527C79.886 71.2516 80.1177 71.2405 80.351 71.2169C80.5826 71.1948 80.8127 71.1602 81.0429 71.1144C81.2714 71.0687 81.4968 71.012 81.7206 70.9442C81.9444 70.8765 82.1634 70.7977 82.3794 70.7094C82.5937 70.6196 82.8049 70.5203 83.0114 70.4099C83.2163 70.2996 83.4164 70.1798 83.6103 70.0506C83.8041 69.9214 83.9917 69.7827 84.173 69.6345C84.3526 69.4864 84.526 69.3287 84.6899 69.1648C84.8554 68.9993 85.0114 68.826 85.1596 68.6463C85.3077 68.4666 85.4464 68.2791 85.5757 68.0852C85.7065 67.8914 85.8263 67.6912 85.935 67.4847C86.0453 67.2798 86.1462 67.0686 86.2345 66.8527C86.3243 66.6368 86.4031 66.4177 86.4709 66.1939C86.5387 65.9717 86.5954 65.7447 86.6395 65.5162C86.6852 65.2877 86.7199 65.0576 86.7435 64.8243C86.7656 64.5926 86.7766 64.3594 86.7766 64.1261V33.0347C86.7766 32.8015 86.7656 32.5682 86.7435 32.3365C86.7199 32.1032 86.6852 31.8731 86.6395 31.6446C86.5954 31.4161 86.5387 31.1891 86.4709 30.9669C86.4031 30.7431 86.3243 30.524 86.2345 30.3081C86.1462 30.0922 86.0453 29.881 85.935 29.6761C85.8263 29.4696 85.7065 29.2694 85.5757 29.0756C85.4464 28.8817 85.3077 28.6942 85.1596 28.5145C85.0114 28.3333 84.8554 28.1615 84.6899 27.996C84.526 27.8305 84.3526 27.6745 84.173 27.5263C83.9917 27.3781 83.8041 27.2395 83.6103 27.1102C83.4164 26.981 83.2163 26.8612 83.0114 26.7509C82.8049 26.6405 82.5937 26.5412 82.3794 26.4514C82.1634 26.3616 81.9444 26.2843 81.7206 26.2166C81.4968 26.1488 81.2714 26.0921 81.0429 26.0464C80.8127 26.0007 80.5826 25.966 80.351 25.9439C80.1177 25.9203 79.886 25.9092 79.6527 25.9092Z" fill="white"/>
</mask>
<g mask="url(#mask1_24_71)">
<path d="M9.05054 25.9092V79.7656H86.7766V25.9092H9.05054Z" fill="url(#paint0_linear_24_71)"/>
</g>
</g>
<mask id="mask2_24_71" style="mask-type:luminance" maskUnits="userSpaceOnUse" x="21" y="26" width="66" height="53">
<path d="M21.8467 26.7272H86.8065V78.7758H21.8467V26.7272Z" fill="white"/>
</mask>
<g mask="url(#mask2_24_71)">
<mask id="mask3_24_71" style="mask-type:luminance" maskUnits="userSpaceOnUse" x="22" y="26" width="65" height="53">
<path d="M22.0059 78.3771L28.3527 73.4108C29.1707 72.7252 30.0801 72.1972 31.0809 71.8269C32.0818 71.4565 33.1157 71.2642 34.1827 71.2516H79.6527C79.8859 71.2516 80.1176 71.2406 80.3509 71.2169C80.5825 71.1948 80.8127 71.1602 81.0428 71.1145C81.2713 71.0688 81.4967 71.012 81.7205 70.9443C81.9443 70.8765 82.1634 70.7977 82.3793 70.7094C82.5936 70.6196 82.8048 70.5203 83.0113 70.41C83.2162 70.2996 83.4163 70.1799 83.6102 70.0506C83.8041 69.9214 83.9916 69.7827 84.1729 69.6345C84.3525 69.4864 84.5259 69.3288 84.6898 69.1649C84.8553 68.9994 85.0113 68.826 85.1595 68.6463C85.3076 68.4666 85.4463 68.2791 85.5756 68.0852C85.7064 67.8914 85.8262 67.6912 85.9349 67.4847C86.0452 67.2799 86.1461 67.0687 86.2344 66.8527C86.3242 66.6368 86.403 66.4177 86.4708 66.1939C86.5386 65.9717 86.5953 65.7448 86.6394 65.5162C86.6851 65.2877 86.7198 65.0576 86.7435 64.8243C86.7655 64.5926 86.7766 64.3594 86.7766 64.1261V33.0347C86.7766 32.4153 86.6962 31.8085 86.5354 31.2096C86.3747 30.6123 86.1414 30.0465 85.8325 29.5106C85.5236 28.9747 85.15 28.4862 84.7135 28.048C84.2785 27.6099 83.793 27.2347 83.2572 26.9243H22.0059V78.3771Z" fill="white"/>
</mask>
<g mask="url(#mask3_24_71)">
<path d="M22.0059 26.9243V78.3771H86.7766V26.9243H22.0059Z" fill="url(#paint1_linear_24_71)"/>
</g>
</g>
<mask id="mask4_24_71" style="mask-type:luminance" maskUnits="userSpaceOnUse" x="21" y="0" width="79" height="55">
<path d="M21.8467 0H99.7824V54.1637H21.8467V0Z" fill="white"/>
</mask>
<g mask="url(#mask4_24_71)">
<mask id="mask5_24_71" style="mask-type:luminance" maskUnits="userSpaceOnUse" x="22" y="0" width="78" height="54">
<path d="M29.1297 0H92.6065C92.8397 0 93.073 0.0110324 93.3047 0.0330977C93.5364 0.0567391 93.768 0.0914129 93.9966 0.137119C94.2251 0.18125 94.4521 0.237988 94.6743 0.30576C94.8981 0.373532 95.1172 0.452336 95.3331 0.542173C95.549 0.630433 95.7586 0.731302 95.9651 0.840052C96.1716 0.950378 96.3702 1.07016 96.564 1.20098C96.7595 1.33021 96.9454 1.46891 97.1267 1.61706C97.3064 1.76521 97.4797 1.92124 97.6452 2.08673C97.8091 2.25065 97.9667 2.42402 98.1133 2.60527C98.2615 2.78494 98.4002 2.97249 98.531 3.16635C98.6602 3.36021 98.78 3.56037 98.8903 3.76526C99.0006 3.97173 99.0999 4.18292 99.1882 4.39727C99.278 4.61319 99.3568 4.83227 99.4246 5.05607C99.4924 5.27988 99.5491 5.50526 99.5948 5.73537C99.6405 5.9639 99.6736 6.19401 99.6973 6.42569C99.7193 6.65895 99.7319 6.89063 99.7319 7.12389V38.2169C99.7319 38.4501 99.7193 38.6818 99.6973 38.9151C99.6736 39.1467 99.6405 39.3769 99.5948 39.607C99.5491 39.8355 99.4924 40.0609 99.4246 40.2847C99.3568 40.5085 99.278 40.7276 99.1882 40.9435C99.0999 41.1594 99.0006 41.369 98.8903 41.5755C98.78 41.7804 98.6602 41.9805 98.531 42.1744C98.4002 42.3683 98.2615 42.5558 98.1133 42.7371C97.9667 42.9167 97.8091 43.0901 97.6452 43.254C97.4797 43.4195 97.3064 43.5755 97.1267 43.7237C96.9454 43.8718 96.7595 44.0105 96.5656 44.1414C96.3702 44.2706 96.1716 44.3904 95.9651 44.5007C95.7586 44.611 95.549 44.7103 95.3331 44.7986C95.1172 44.8884 94.8981 44.9672 94.6743 45.035C94.4521 45.1028 94.2251 45.1595 93.9966 45.2052C93.768 45.2509 93.5364 45.284 93.3047 45.3077C93.073 45.3297 92.8397 45.3423 92.6065 45.3423C92.4363 45.3423 92.2676 45.3581 92.1006 45.3912C91.9335 45.4243 91.7727 45.4731 91.6151 45.5393C91.4575 45.604 91.3078 45.6843 91.1675 45.7789C91.0257 45.8735 90.8948 45.9806 90.7751 46.1004C90.6537 46.2202 90.5465 46.351 90.452 46.4929C90.3574 46.6347 90.2786 46.7844 90.2124 46.9405C90.1478 47.0981 90.0989 47.2604 90.0658 47.4275C90.0327 47.5946 90.0154 47.7632 90.0154 47.9318V52.6821C90.0185 52.9028 89.9602 53.1077 89.8452 53.2952C89.7285 53.4828 89.5725 53.6262 89.3739 53.7224C89.1753 53.8185 88.9657 53.8563 88.7466 53.8311C88.5276 53.8075 88.3321 53.7271 88.1588 53.59L80.4297 47.5C79.6038 46.8349 78.6912 46.3258 77.6904 45.9743C76.6912 45.6229 75.6604 45.4479 74.5997 45.4495H29.1297C28.8949 45.4495 28.6601 45.4385 28.4252 45.4148C28.1904 45.3912 27.9571 45.3565 27.727 45.3108C27.4953 45.2635 27.2684 45.2068 27.043 45.1374C26.8176 45.0681 26.5954 44.9877 26.3779 44.8963C26.1604 44.8065 25.9492 44.704 25.7412 44.5921C25.5347 44.4802 25.333 44.3589 25.1375 44.2265C24.9421 44.0941 24.7545 43.9538 24.5733 43.8025C24.392 43.6512 24.2187 43.492 24.0532 43.3249C23.8877 43.1563 23.7317 42.9814 23.5835 42.797C23.4354 42.6141 23.2967 42.4234 23.1674 42.2264C23.0398 42.0294 22.92 41.8261 22.8112 41.618C22.7025 41.4084 22.6048 41.1957 22.5165 40.9766C22.4282 40.7575 22.3526 40.5353 22.2864 40.3083C22.2202 40.0829 22.1666 39.8528 22.124 39.6211C22.0799 39.3895 22.05 39.1562 22.0295 38.9214C22.0106 38.6865 22.0011 38.4517 22.0058 38.2169V7.12389C22.0058 6.89063 22.0169 6.65895 22.0389 6.42569C22.0626 6.19401 22.0973 5.9639 22.143 5.73537C22.1871 5.50526 22.2438 5.27988 22.3116 5.05607C22.3794 4.83227 22.4582 4.61319 22.548 4.39727C22.6363 4.18292 22.7371 3.97173 22.8459 3.76526C22.9562 3.56037 23.076 3.36021 23.2068 3.16635C23.3361 2.97249 23.4748 2.78494 23.6229 2.60527C23.7711 2.42402 23.9271 2.25065 24.0926 2.08673C24.2565 1.92124 24.4299 1.76521 24.6095 1.61706C24.7908 1.46891 24.9783 1.33021 25.1722 1.20098C25.3661 1.07016 25.5662 0.950378 25.7711 0.840052C25.9776 0.731302 26.1888 0.630433 26.4031 0.542173C26.619 0.452336 26.8381 0.373532 27.0619 0.30576C27.2857 0.237988 27.5111 0.18125 27.7396 0.137119C27.9697 0.0914129 28.1998 0.0567391 28.4315 0.0330977C28.6648 0.0110324 28.8965 0 29.1297 0Z" fill="white"/>
</mask>
<g mask="url(#mask5_24_71)">
<path d="M99.7319 0V53.8563H22.0011V0H99.7319Z" fill="url(#paint2_linear_24_71)"/>
</g>
</g>
<mask id="mask6_24_71" style="mask-type:luminance" maskUnits="userSpaceOnUse" x="21" y="25" width="66" height="28">
<path d="M21.8467 25.5168H86.8065V52.5498H21.8467V25.5168Z" fill="white"/>
</mask>
<g mask="url(#mask6_24_71)">
<mask id="mask7_24_71" style="mask-type:luminance" maskUnits="userSpaceOnUse" x="22" y="25" width="65" height="28">
<path d="M79.6527 25.9092H22.0059V38.2169C22.0059 38.4501 22.0169 38.6818 22.039 38.9151C22.0626 39.1468 22.0973 39.3769 22.143 39.607C22.1871 39.8355 22.2438 40.0609 22.3116 40.2847C22.3794 40.5085 22.4582 40.7276 22.548 40.9435C22.6363 41.1594 22.7372 41.369 22.8459 41.5755C22.9562 41.7804 23.076 41.9806 23.2068 42.1744C23.3361 42.3683 23.4748 42.5558 23.6229 42.7371C23.7711 42.9168 23.9271 43.0901 24.0926 43.254C24.2565 43.4195 24.4299 43.5756 24.6095 43.7237C24.7908 43.8719 24.9784 44.0106 25.1722 44.1414C25.3661 44.2706 25.5662 44.3904 25.7711 44.5007C25.9776 44.611 26.1888 44.7103 26.4031 44.7986C26.6191 44.8884 26.8381 44.9672 27.0619 45.035C27.2857 45.1028 27.5111 45.1595 27.7396 45.2052C27.9698 45.2509 28.1999 45.284 28.4315 45.3077C28.6648 45.3297 28.8965 45.3423 29.1298 45.3423H74.5997C75.6604 45.3392 76.6912 45.5141 77.6904 45.8672C78.6912 46.2186 79.6038 46.7277 80.4297 47.3928L86.7766 52.4662V33.0347C86.7766 32.8015 86.7655 32.5682 86.7435 32.3365C86.7198 32.1032 86.6851 31.8731 86.6394 31.6446C86.5953 31.4161 86.5386 31.1891 86.4708 30.9669C86.403 30.7431 86.3242 30.524 86.2344 30.3081C86.1461 30.0922 86.0452 29.881 85.9349 29.6761C85.8262 29.4696 85.7064 29.2694 85.5756 29.0756C85.4463 28.8817 85.3076 28.6942 85.1595 28.5145C85.0113 28.3333 84.8553 28.1615 84.6898 27.996C84.5259 27.8305 84.3525 27.6745 84.1729 27.5263C83.9916 27.3781 83.8041 27.2395 83.6102 27.1102C83.4163 26.981 83.2162 26.8612 83.0113 26.7509C82.8048 26.6405 82.5936 26.5412 82.3793 26.4514C82.1634 26.3616 81.9443 26.2843 81.7205 26.2166C81.4967 26.1488 81.2713 26.0921 81.0428 26.0464C80.8127 26.0007 80.5825 25.966 80.3509 25.9439C80.1176 25.9203 79.8859 25.9092 79.6527 25.9092Z" fill="white"/>
</mask>
<g mask="url(#mask7_24_71)">
<path d="M86.7766 25.9092V52.4662H22.0059V25.9092H86.7766Z" fill="url(#paint3_linear_24_71)"/>
</g>
</g>
<mask id="mask8_24_71" style="mask-type:luminance" maskUnits="userSpaceOnUse" x="41" y="19" width="8" height="7">
<path d="M41.2135 19.0612H48.0726V25.9203H41.2135V19.0612Z" fill="white"/>
</mask>
<g mask="url(#mask8_24_71)">
<mask id="mask9_24_71" style="mask-type:luminance" maskUnits="userSpaceOnUse" x="41" y="19" width="7" height="7">
<path d="M47.9135 22.6704C47.9135 22.8832 47.893 23.0944 47.852 23.3024C47.8111 23.5105 47.7496 23.7138 47.6676 23.9092C47.5857 24.1062 47.4864 24.2938 47.3682 24.4703C47.25 24.6468 47.116 24.8107 46.9647 24.9604C46.815 25.1118 46.6511 25.2457 46.4745 25.3639C46.298 25.4821 46.1105 25.5814 45.915 25.6634C45.718 25.7438 45.5163 25.8052 45.3067 25.8478C45.0986 25.8888 44.8874 25.9092 44.6747 25.9092C44.4635 25.9092 44.2523 25.8888 44.0442 25.8478C43.8346 25.8052 43.6329 25.7438 43.4359 25.6634C43.2388 25.5814 43.0529 25.4821 42.8763 25.3639C42.6998 25.2457 42.5359 25.1118 42.3846 24.9604C42.2349 24.8107 42.1009 24.6468 41.9827 24.4703C41.8645 24.2938 41.7652 24.1062 41.6832 23.9092C41.6013 23.7138 41.5398 23.5105 41.4988 23.3024C41.4579 23.0944 41.4374 22.8832 41.4374 22.6704C41.4374 22.4576 41.4579 22.248 41.4988 22.0384C41.5398 21.8303 41.6013 21.627 41.6832 21.4316C41.7652 21.2346 41.8645 21.0486 41.9827 20.8705C42.1009 20.694 42.2349 20.5301 42.3846 20.3804C42.5359 20.2306 42.6998 20.0951 42.8763 19.9769C43.0529 19.8602 43.2388 19.7594 43.4359 19.679C43.6329 19.597 43.8346 19.5356 44.0442 19.4946C44.2523 19.452 44.4635 19.4315 44.6747 19.4315C44.8874 19.4315 45.0986 19.452 45.3067 19.4946C45.5163 19.5356 45.718 19.597 45.915 19.679C46.1105 19.7594 46.298 19.8602 46.4745 19.9769C46.6511 20.0951 46.815 20.2306 46.9647 20.3804C47.116 20.5301 47.25 20.694 47.3682 20.8705C47.4864 21.0486 47.5857 21.2346 47.6676 21.4316C47.7496 21.627 47.8111 21.8303 47.852 22.0384C47.893 22.248 47.9135 22.4576 47.9135 22.6704Z" fill="white"/>
</mask>
<g mask="url(#mask9_24_71)">
<path d="M41.4374 19.4315V25.9092H47.9135V19.4315H41.4374Z" fill="url(#paint4_linear_24_71)"/>
</g>
</g>
<mask id="mask10_24_71" style="mask-type:luminance" maskUnits="userSpaceOnUse" x="57" y="19" width="8" height="7">
<path d="M57.3527 19.0612H64.2118V25.9203H57.3527V19.0612Z" fill="white"/>
</mask>
<g mask="url(#mask10_24_71)">
<mask id="mask11_24_71" style="mask-type:luminance" maskUnits="userSpaceOnUse" x="57" y="19" width="8" height="7">
<path d="M64.1063 22.6704C64.1063 22.8832 64.0858 23.0944 64.0448 23.3024C64.0038 23.5105 63.9423 23.7138 63.8604 23.9092C63.7784 24.1062 63.6791 24.2938 63.5609 24.4703C63.4427 24.6468 63.3088 24.8107 63.159 24.9604C63.0077 25.1118 62.8438 25.2457 62.6673 25.3639C62.4908 25.4821 62.3048 25.5814 62.1078 25.6634C61.9108 25.7438 61.709 25.8052 61.501 25.8478C61.2914 25.8888 61.0817 25.9092 60.869 25.9092C60.6562 25.9092 60.445 25.8888 60.237 25.8478C60.0273 25.8052 59.8256 25.7438 59.6286 25.6634C59.4332 25.5814 59.2456 25.4821 59.0691 25.3639C58.8926 25.2457 58.7287 25.1118 58.5789 24.9604C58.4276 24.8107 58.2937 24.6468 58.1755 24.4703C58.0572 24.2938 57.958 24.1062 57.876 23.9092C57.7956 23.7138 57.7341 23.5105 57.6916 23.3024C57.6506 23.0944 57.6301 22.8832 57.6301 22.6704C57.6301 22.4576 57.6506 22.248 57.6916 22.0384C57.7341 21.8303 57.7956 21.627 57.876 21.4316C57.958 21.2346 58.0572 21.0486 58.1755 20.8705C58.2937 20.694 58.4276 20.5301 58.5789 20.3804C58.7287 20.2306 58.8926 20.0951 59.0691 19.9769C59.2456 19.8602 59.4332 19.7594 59.6286 19.679C59.8256 19.597 60.0273 19.5356 60.237 19.4946C60.445 19.452 60.6562 19.4315 60.869 19.4315C61.0817 19.4315 61.2914 19.452 61.501 19.4946C61.709 19.5356 61.9108 19.597 62.1078 19.679C62.3048 19.7594 62.4908 19.8602 62.6673 19.9769C62.8438 20.0951 63.0077 20.2306 63.159 20.3804C63.3088 20.5301 63.4427 20.694 63.5609 20.8705C63.6791 21.0486 63.7784 21.2346 63.8604 21.4316C63.9423 21.627 64.0038 21.8303 64.0448 22.0384C64.0858 22.248 64.1063 22.4576 64.1063 22.6704Z" fill="white"/>
</mask>
<g mask="url(#mask11_24_71)">
<path d="M57.6301 19.4315V25.9092H64.1063V19.4315H57.6301Z" fill="url(#paint5_linear_24_71)"/>
</g>
</g>
<mask id="mask12_24_71" style="mask-type:luminance" maskUnits="userSpaceOnUse" x="73" y="19" width="8" height="7">
<path d="M73.4917 19.0612H80.3508V25.9203H73.4917V19.0612Z" fill="white"/>
</mask>
<g mask="url(#mask12_24_71)">
<mask id="mask13_24_71" style="mask-type:luminance" maskUnits="userSpaceOnUse" x="73" y="19" width="8" height="7">
<path d="M80.3005 22.6704C80.3005 22.8832 80.2784 23.0944 80.2374 23.3024C80.1964 23.5105 80.135 23.7138 80.053 23.9092C79.9726 24.1062 79.8718 24.2938 79.7536 24.4703C79.6353 24.6468 79.5014 24.8107 79.3517 24.9604C79.2003 25.1118 79.038 25.2457 78.8599 25.3639C78.6834 25.4821 78.4974 25.5814 78.3004 25.6634C78.1034 25.7438 77.9017 25.8052 77.6936 25.8478C77.484 25.8888 77.2744 25.9092 77.0616 25.9092C76.8488 25.9092 76.6376 25.8888 76.4296 25.8478C76.2216 25.8052 76.0182 25.7438 75.8212 25.6634C75.6258 25.5814 75.4382 25.4821 75.2617 25.3639C75.0852 25.2457 74.9213 25.1118 74.7716 24.9604C74.6203 24.8107 74.4863 24.6468 74.3681 24.4703C74.2499 24.2938 74.1506 24.1062 74.0686 23.9092C73.9882 23.7138 73.9268 23.5105 73.8842 23.3024C73.8432 23.0944 73.8228 22.8832 73.8228 22.6704C73.8228 22.4576 73.8432 22.248 73.8842 22.0384C73.9268 21.8303 73.9882 21.627 74.0686 21.4316C74.1506 21.2346 74.2499 21.0486 74.3681 20.8705C74.4863 20.694 74.6203 20.5301 74.7716 20.3804C74.9213 20.2306 75.0852 20.0951 75.2617 19.9769C75.4382 19.8602 75.6258 19.7594 75.8212 19.679C76.0182 19.597 76.2216 19.5356 76.4296 19.4946C76.6376 19.452 76.8488 19.4315 77.0616 19.4315C77.2744 19.4315 77.484 19.452 77.6936 19.4946C77.9017 19.5356 78.1034 19.597 78.3004 19.679C78.4974 19.7594 78.6834 19.8602 78.8599 19.9769C79.038 20.0951 79.2003 20.2306 79.3517 20.3804C79.5014 20.5301 79.6353 20.694 79.7536 20.8705C79.8718 21.0486 79.9726 21.2346 80.053 21.4316C80.135 21.627 80.1964 21.8303 80.2374 22.0384C80.2784 22.248 80.3005 22.4576 80.3005 22.6704Z" fill="white"/>
</mask>
<g mask="url(#mask13_24_71)">
<path d="M73.8228 19.4315V25.9092H80.3005V19.4315H73.8228Z" fill="url(#paint6_linear_24_71)"/>
</g>
</g>
<g clip-path="url(#clip0_24_71)">
<path d="M170.611 41.3015C169.986 41.8241 169.068 42.1742 167.85 42.3569C166.632 42.5345 165.336 42.6208 163.963 42.6208C162.588 42.6208 161.304 42.5979 160.107 42.5497C158.915 42.4964 158.009 42.4685 157.387 42.4685C154.693 42.5244 152.024 42.5649 149.38 42.5903C146.741 42.6106 144.072 42.6208 141.373 42.6208C140.546 42.6208 140.016 42.8821 139.78 43.4022C139.549 43.9248 139.521 44.5084 139.698 45.1579C139.881 45.8023 140.127 46.3554 140.439 46.8222C141.528 48.2227 142.888 49.3542 144.519 50.2118C146.155 51.0643 147.853 51.592 149.613 51.7949C151.582 52.0055 153.226 51.7341 154.546 50.9831C155.87 50.2321 157.362 49.4405 159.021 48.6083C159.797 48.1973 160.33 47.9385 160.614 47.8371C160.904 47.7305 161.386 47.9639 162.055 48.5373C162.779 49.1056 163.466 49.8845 164.116 50.8714C164.765 51.8533 165.399 52.7058 166.023 53.4288C166.693 54.3092 166.665 55.1389 165.942 55.9152C165.217 56.6941 164.105 57.407 162.603 58.0565C161.102 58.706 159.468 59.2642 157.702 59.731C155.941 60.1978 154.348 60.5607 152.922 60.8169C151.493 61.0731 150.522 61.2025 150.009 61.2025C146.531 61.2025 143.327 60.5175 140.399 59.1424C137.476 57.7698 134.974 55.9051 132.899 53.5506C130.829 51.1911 129.271 48.5348 128.231 45.5841C127.196 42.6284 126.795 39.5306 127.023 36.2881C127.259 33.0483 128.261 29.8997 130.027 26.8399C131.372 24.4601 133.173 22.4406 135.426 20.7813C137.679 19.117 140.165 17.8865 142.885 17.0873C145.61 16.283 148.398 15.9202 151.247 16.0014C154.102 16.0775 156.811 16.6458 159.376 17.7064C161.939 18.7694 164.179 20.3627 166.095 22.4863C166.98 23.4757 167.822 24.7062 168.621 26.1803C169.426 27.6569 170.113 29.2502 170.682 30.9602C171.255 32.6728 171.608 34.3472 171.737 35.9837C171.864 37.615 171.696 39.1043 171.23 40.449C171.128 40.7611 170.92 41.0452 170.611 41.3015ZM158.869 33.2132C159.024 32.8554 159.074 32.4673 159.021 32.0461C158.973 31.4321 158.689 30.8359 158.169 30.26C156.768 28.2912 154.952 26.8399 152.719 25.9063C150.491 24.9726 148.216 25.0285 145.889 26.0687C144.846 26.5355 143.872 27.1317 142.966 27.8548C142.058 28.5804 141.216 29.3568 140.439 30.1889C140.236 30.3919 140.028 30.6253 139.82 30.8892C139.61 31.148 139.455 31.4321 139.353 31.7416C139.143 32.3658 139.244 32.9366 139.658 33.4567C140.076 33.9718 140.597 34.228 141.221 34.228H157.083C157.961 34.228 158.557 33.8906 158.869 33.2132Z" fill="#111113"/>
<path d="M211.025 20.9336C212.012 22.0245 212.324 23.1916 211.959 24.4348C211.802 25.0031 211.533 25.5359 211.147 26.0281C210.762 26.5228 210.358 26.9998 209.94 27.459C209.681 27.7229 209.422 27.9842 209.158 28.2404C208.899 28.4992 208.643 28.758 208.387 29.0219C207.973 29.4887 207.415 29.646 206.712 29.4887C206.015 29.3339 205.314 29.0726 204.612 28.7073C203.914 28.3419 203.305 28.0831 202.785 27.9258C201.648 27.5148 200.522 27.152 199.405 26.84C198.289 26.5304 197.135 26.297 195.945 26.1397C195.686 26.094 195.44 26.0687 195.204 26.0687C194.973 26.0687 194.73 26.0687 194.473 26.0687C191.929 26.0687 189.658 26.8349 187.664 28.3622C185.667 29.8921 184.307 31.9243 183.584 34.4614C182.805 37.2091 182.884 39.9061 183.817 42.5497C184.751 45.1883 186.357 47.3144 188.638 48.9229C190.404 50.1154 192.682 50.7091 195.478 50.7091C199.055 50.7091 201.935 49.8541 204.114 48.1415C205.149 47.317 206.015 46.7892 206.712 46.5584C207.415 46.3224 208.257 46.7994 209.239 47.9893C209.759 48.5119 210.264 49.0701 210.751 49.6638C211.244 50.26 211.726 50.8689 212.192 51.4905C212.814 52.3176 212.918 53.1193 212.507 53.8957C212.094 54.6746 211.393 55.4027 210.406 56.0776C209.425 56.7474 208.402 57.3309 207.342 57.8231C206.278 58.3179 205.459 58.6934 204.886 58.9496C201.724 60.4516 198.411 61.2026 194.94 61.2026C191.515 61.2026 188.247 60.4668 185.137 58.9902C182.031 57.5161 179.261 55.4281 176.825 52.7286C174.747 50.293 173.37 47.7812 172.695 45.1883C172.025 42.5979 171.807 40.0608 172.035 37.577C172.271 35.0881 172.7 32.8326 173.324 30.808C174.669 26.6624 176.858 23.3464 179.89 20.8625C182.919 18.3736 186.692 16.8412 191.206 16.2653C192.707 16.1105 194.108 16.0319 195.407 16.0319C196.13 16.0319 197.193 16.1232 198.594 16.3059C199.994 16.4885 201.496 16.7778 203.099 17.1685C204.708 17.5541 206.238 18.059 207.687 18.6806C209.14 19.3047 210.254 20.0557 211.025 20.9336Z" fill="#111113"/>
<path d="M254.021 32.9087C254.331 35.5016 254.473 38.1199 254.448 40.7636C254.42 43.4022 254.407 45.8378 254.407 48.0705C254.407 48.5855 254.458 49.5065 254.559 50.8309C254.666 52.1502 254.722 53.538 254.722 54.9917C254.722 56.4404 254.602 57.6963 254.366 58.7568C254.136 59.8198 253.709 60.4008 253.088 60.5023C252.256 60.6114 251.175 60.7712 249.85 60.9793C248.531 61.1823 247.263 61.2279 246.045 61.1214C244.827 61.0199 243.906 60.581 243.284 59.8021C242.559 58.876 242.275 57.6988 242.432 56.2704C242.587 54.8446 242.64 53.6115 242.594 52.5764C242.594 49.6739 242.579 46.7994 242.554 43.9502C242.526 41.096 242.538 38.2443 242.594 35.3951C242.594 32.6956 241.945 30.5441 240.646 28.9407C239.347 27.3372 237.479 26.3807 235.044 26.0687C234.887 26.0154 234.732 25.9875 234.577 25.9875C234.42 25.9875 234.265 25.9875 234.11 25.9875C232.608 25.9875 231.198 26.3909 229.878 27.1952C228.559 27.9943 227.468 29.0574 226.61 30.3818C225.758 31.7011 225.253 33.1675 225.098 34.776C224.941 36.6916 224.85 38.5969 224.824 40.4896C224.796 42.3772 224.809 44.2547 224.865 46.122C224.865 48.1999 224.85 50.3006 224.824 52.4242C224.796 54.5503 224.784 56.6738 224.784 58.7974C224.784 59.5763 224.38 60.1217 223.576 60.4313C222.777 60.7433 221.793 60.8981 220.623 60.8981C219.458 60.8981 218.345 60.8474 217.284 60.7459C216.221 60.6393 215.407 60.5835 214.838 60.5835C214.059 60.5835 213.524 60.208 213.235 59.457C212.951 58.706 212.837 57.813 212.89 56.7778C212.943 55.7376 213.034 54.738 213.164 53.7841C213.291 52.825 213.357 52.0842 213.357 51.5615C213.41 50.0596 213.448 48.5576 213.468 47.0556C213.494 45.5537 213.509 44.0517 213.509 42.5497C213.509 36.07 213.443 29.5902 213.316 23.1155C213.187 16.6357 213.123 10.1813 213.123 3.75227C213.123 2.9201 213.225 2.15643 213.428 1.45872C213.636 0.755944 214.209 0.301801 215.143 0.0988328C216.284 -0.165027 217.477 -0.228454 218.715 -0.0939875C219.958 0.0354052 221.153 0.124204 222.297 0.169872C223.698 0.225688 224.632 0.717887 225.098 1.65154C225.565 2.5852 225.758 3.73958 225.677 5.11216C225.601 6.48727 225.433 7.83701 225.169 9.16138C224.911 10.4807 224.784 11.5539 224.784 12.3784V16.3465C224.784 16.9148 225.017 17.407 225.484 17.818C225.794 18.1301 226.235 18.2848 226.803 18.2848C226.857 18.2848 226.897 18.2848 226.925 18.2848C226.95 18.2848 226.989 18.2848 227.037 18.2848C227.869 18.1833 228.66 18.0692 229.411 17.9398C230.162 17.8129 230.875 17.6962 231.553 17.5947C232.897 17.3309 234.194 17.1228 235.44 16.9655C236.683 16.8108 237.875 16.7321 239.012 16.7321C242.536 16.7321 245.319 17.4882 247.364 18.9952C249.414 20.4972 250.941 22.4812 251.951 24.9422C252.966 27.3981 253.656 30.0545 254.021 32.9087Z" fill="#111113"/>
<path d="M254.948 38.5005C254.892 35.5981 255.46 32.7108 256.653 29.8337C257.843 26.9592 259.505 24.4322 261.636 22.2529C263.65 20.1826 265.954 18.6045 268.547 17.5135C271.137 16.4251 273.806 15.8796 276.554 15.8796C276.818 15.8796 277.092 15.8796 277.376 15.8796C277.66 15.8796 277.929 15.8796 278.188 15.8796C278.188 15.8796 278.2 15.8796 278.228 15.8796C278.254 15.8796 278.269 15.8796 278.269 15.8796C282.775 15.8796 286.748 16.8133 290.193 18.6806C293.644 20.5479 296.353 23.1408 298.322 26.4543C300.296 29.7703 301.286 33.6064 301.286 37.9626C301.286 44.7494 299.157 50.2676 294.902 54.5147C292.832 56.5926 290.358 58.1885 287.484 59.3048C284.607 60.416 281.486 60.9691 278.117 60.9691C274.902 60.9691 271.908 60.3881 269.135 59.2236C266.36 58.0616 263.922 56.4531 261.818 54.4031C259.72 52.3531 258.063 49.9682 256.846 47.2485C255.628 44.5287 254.994 41.6135 254.948 38.5005ZM277.883 25.135C276.069 25.135 274.306 25.7185 272.596 26.8805C270.883 28.0451 269.47 29.547 268.354 31.3865C267.238 33.2284 266.654 35.1591 266.608 37.1812C266.553 39.4088 266.915 41.5603 267.694 43.6356C268.471 45.7059 269.663 47.4413 271.267 48.8418C272.875 50.2422 274.872 51.0719 277.254 51.3281C279.898 51.592 282.128 51.181 283.942 50.09C285.753 49.0016 287.151 47.5123 288.133 45.6247C289.12 43.732 289.666 41.6567 289.767 39.4037C289.874 37.1457 289.539 34.979 288.762 32.9087C287.984 30.8334 286.738 29.0828 285.028 27.662C283.323 26.2361 281.146 25.3938 278.502 25.135C278.401 25.135 278.294 25.135 278.188 25.135C278.086 25.135 277.985 25.135 277.883 25.135Z" fill="#111113"/>
</g>
<defs>
<linearGradient id="paint0_linear_24_71" x1="47.9141" y1="79.7655" x2="47.9141" y2="25.9093" gradientUnits="userSpaceOnUse">
<stop stop-color="#243582"/>
<stop offset="0.03125" stop-color="#243582"/>
<stop offset="0.0625" stop-color="#243581"/>
<stop offset="0.09375" stop-color="#243580"/>
<stop offset="0.125" stop-color="#23347F"/>
<stop offset="0.15625" stop-color="#23347F"/>
<stop offset="0.1875" stop-color="#23347E"/>
<stop offset="0.21875" stop-color="#23347D"/>
<stop offset="0.25" stop-color="#23347C"/>
<stop offset="0.28125" stop-color="#23347B"/>
<stop offset="0.3125" stop-color="#23337A"/>
<stop offset="0.34375" stop-color="#233379"/>
<stop offset="0.375" stop-color="#233379"/>
<stop offset="0.40625" stop-color="#223378"/>
<stop offset="0.4375" stop-color="#223377"/>
<stop offset="0.46875" stop-color="#223276"/>
<stop offset="0.5" stop-color="#223275"/>
<stop offset="0.53125" stop-color="#223274"/>
<stop offset="0.5625" stop-color="#223274"/>
<stop offset="0.59375" stop-color="#223273"/>
<stop offset="0.625" stop-color="#223272"/>
<stop offset="0.65625" stop-color="#223171"/>
<stop offset="0.6875" stop-color="#213170"/>
<stop offset="0.71875" stop-color="#21316F"/>
<stop offset="0.75" stop-color="#21316E"/>
<stop offset="0.78125" stop-color="#21316E"/>
<stop offset="0.8125" stop-color="#21316D"/>
<stop offset="0.84375" stop-color="#21306C"/>
<stop offset="0.875" stop-color="#21306B"/>
<stop offset="0.90625" stop-color="#21306A"/>
<stop offset="0.9375" stop-color="#213069"/>
<stop offset="0.96875" stop-color="#203069"/>
<stop offset="1" stop-color="#203068"/>
</linearGradient>
<linearGradient id="paint1_linear_24_71" x1="54.3912" y1="78.3766" x2="54.3912" y2="26.9241" gradientUnits="userSpaceOnUse">
<stop stop-color="#25378C"/>
<stop offset="0.0078125" stop-color="#25378B"/>
<stop offset="0.015625" stop-color="#25378B"/>
<stop offset="0.0234375" stop-color="#25378A"/>
<stop offset="0.03125" stop-color="#253689"/>
<stop offset="0.0390625" stop-color="#253689"/>
<stop offset="0.046875" stop-color="#253688"/>
<stop offset="0.0546875" stop-color="#243687"/>
<stop offset="0.0625" stop-color="#243687"/>
<stop offset="0.0703125" stop-color="#243686"/>
<stop offset="0.078125" stop-color="#243685"/>
<stop offset="0.0859375" stop-color="#243585"/>
<stop offset="0.09375" stop-color="#243584"/>
<stop offset="0.101563" stop-color="#243583"/>
<stop offset="0.109375" stop-color="#243583"/>
<stop offset="0.117188" stop-color="#243582"/>
<stop offset="0.125" stop-color="#243581"/>
<stop offset="0.132812" stop-color="#243581"/>
<stop offset="0.140625" stop-color="#243580"/>
<stop offset="0.148437" stop-color="#23347F"/>
<stop offset="0.15625" stop-color="#23347F"/>
<stop offset="0.164063" stop-color="#23347E"/>
<stop offset="0.171875" stop-color="#23347D"/>
<stop offset="0.179688" stop-color="#23347D"/>
<stop offset="0.1875" stop-color="#23347C"/>
<stop offset="0.195312" stop-color="#23347B"/>
<stop offset="0.203125" stop-color="#23337B"/>
<stop offset="0.210937" stop-color="#23337A"/>
<stop offset="0.21875" stop-color="#23337A"/>
<stop offset="0.226563" stop-color="#233379"/>
<stop offset="0.234375" stop-color="#223378"/>
<stop offset="0.242188" stop-color="#223378"/>
<stop offset="0.25" stop-color="#223377"/>
<stop offset="0.257812" stop-color="#223276"/>
<stop offset="0.265625" stop-color="#223276"/>
<stop offset="0.273437" stop-color="#223275"/>
<stop offset="0.28125" stop-color="#223274"/>
<stop offset="0.289063" stop-color="#223274"/>
<stop offset="0.296875" stop-color="#223273"/>
<stop offset="0.304688" stop-color="#223272"/>
<stop offset="0.3125" stop-color="#223272"/>
<stop offset="0.320312" stop-color="#223171"/>
<stop offset="0.328125" stop-color="#213170"/>
<stop offset="0.335937" stop-color="#213170"/>
<stop offset="0.34375" stop-color="#21316F"/>
<stop offset="0.351563" stop-color="#21316E"/>
<stop offset="0.359375" stop-color="#21316E"/>
<stop offset="0.367188" stop-color="#21316D"/>
<stop offset="0.375" stop-color="#21306C"/>
<stop offset="0.382812" stop-color="#21306C"/>
<stop offset="0.390625" stop-color="#21306B"/>
<stop offset="0.398437" stop-color="#21306A"/>
<stop offset="0.40625" stop-color="#21306A"/>
<stop offset="0.414062" stop-color="#213069"/>
<stop offset="0.421875" stop-color="#203068"/>
<stop offset="0.429688" stop-color="#203068"/>
<stop offset="0.4375" stop-color="#202F67"/>
<stop offset="0.445312" stop-color="#202F66"/>
<stop offset="0.453125" stop-color="#202F66"/>
<stop offset="0.460938" stop-color="#202F65"/>
<stop offset="0.46875" stop-color="#1F2F64"/>
<stop offset="0.476563" stop-color="#1F2E63"/>
<stop offset="0.484375" stop-color="#1F2E62"/>
<stop offset="0.492188" stop-color="#1E2E62"/>
<stop offset="0.5" stop-color="#1E2E61"/>
<stop offset="0.507812" stop-color="#1D2D60"/>
<stop offset="0.515625" stop-color="#1D2D5F"/>
<stop offset="0.523438" stop-color="#1C2D5E"/>
<stop offset="0.53125" stop-color="#1C2D5D"/>
<stop offset="0.539062" stop-color="#1B2C5C"/>
<stop offset="0.546875" stop-color="#1B2C5C"/>
<stop offset="0.554688" stop-color="#1A2C5B"/>
<stop offset="0.5625" stop-color="#1A2C5A"/>
<stop offset="0.570312" stop-color="#192B59"/>
<stop offset="0.578125" stop-color="#192B58"/>
<stop offset="0.585938" stop-color="#182B57"/>
<stop offset="0.59375" stop-color="#182A57"/>
<stop offset="0.601562" stop-color="#182A56"/>
<stop offset="0.609375" stop-color="#172A55"/>
<stop offset="0.617188" stop-color="#172A54"/>
<stop offset="0.625" stop-color="#162953"/>
<stop offset="0.632812" stop-color="#162952"/>
<stop offset="0.640625" stop-color="#152952"/>
<stop offset="0.648438" stop-color="#152951"/>
<stop offset="0.65625" stop-color="#142850"/>
<stop offset="0.664062" stop-color="#14284F"/>
<stop offset="0.671875" stop-color="#13284E"/>
<stop offset="0.679688" stop-color="#13284D"/>
<stop offset="0.6875" stop-color="#12274C"/>
<stop offset="0.695312" stop-color="#12274C"/>
<stop offset="0.703125" stop-color="#11274B"/>
<stop offset="0.710938" stop-color="#11264A"/>
<stop offset="0.71875" stop-color="#102649"/>
<stop offset="0.726562" stop-color="#102648"/>
<stop offset="0.734375" stop-color="#102647"/>
<stop offset="0.742188" stop-color="#0F2547"/>
<stop offset="0.75" stop-color="#0F2546"/>
<stop offset="0.757812" stop-color="#0E2545"/>
<stop offset="0.765625" stop-color="#0E2544"/>
<stop offset="0.773438" stop-color="#0D2443"/>
<stop offset="0.78125" stop-color="#0D2442"/>
<stop offset="0.789062" stop-color="#0C2441"/>
<stop offset="0.796875" stop-color="#0C2441"/>
<stop offset="0.804688" stop-color="#0B2340"/>
<stop offset="0.8125" stop-color="#0B233F"/>
<stop offset="0.820312" stop-color="#0A233E"/>
<stop offset="0.828125" stop-color="#0A223D"/>
<stop offset="0.835938" stop-color="#09223C"/>
<stop offset="0.84375" stop-color="#09223C"/>
<stop offset="0.851562" stop-color="#08223B"/>
<stop offset="0.859375" stop-color="#08213A"/>
<stop offset="0.867188" stop-color="#082139"/>
<stop offset="0.875" stop-color="#072138"/>
<stop offset="0.882812" stop-color="#072137"/>
<stop offset="0.890625" stop-color="#062036"/>
<stop offset="0.898438" stop-color="#062036"/>
<stop offset="0.90625" stop-color="#052035"/>
<stop offset="0.914062" stop-color="#052034"/>
<stop offset="0.921875" stop-color="#041F33"/>
<stop offset="0.929688" stop-color="#041F32"/>
<stop offset="0.9375" stop-color="#031F31"/>
<stop offset="0.945312" stop-color="#031E31"/>
<stop offset="0.953125" stop-color="#021E30"/>
<stop offset="0.96875" stop-color="#021E2F"/>
<stop offset="1" stop-color="#021E2F"/>
</linearGradient>
<linearGradient id="paint2_linear_24_71" x1="60.8683" y1="53.8557" x2="60.8683" y2="-0.000529663" gradientUnits="userSpaceOnUse">
<stop stop-color="#15C7E5"/>
<stop offset="0.015625" stop-color="#15C7E5"/>
<stop offset="0.03125" stop-color="#15C6E5"/>
<stop offset="0.046875" stop-color="#15C6E5"/>
<stop offset="0.0625" stop-color="#14C5E5"/>
<stop offset="0.078125" stop-color="#14C4E5"/>
<stop offset="0.09375" stop-color="#14C4E6"/>
<stop offset="0.109375" stop-color="#13C3E6"/>
<stop offset="0.125" stop-color="#13C3E6"/>
<stop offset="0.140625" stop-color="#13C2E6"/>
<stop offset="0.15625" stop-color="#12C1E6"/>
<stop offset="0.171875" stop-color="#12C1E6"/>
<stop offset="0.1875" stop-color="#12C0E6"/>
<stop offset="0.203125" stop-color="#11C0E6"/>
<stop offset="0.21875" stop-color="#11BFE6"/>
<stop offset="0.234375" stop-color="#11BFE7"/>
<stop offset="0.25" stop-color="#11BEE7"/>
<stop offset="0.265625" stop-color="#10BDE7"/>
<stop offset="0.28125" stop-color="#10BDE7"/>
<stop offset="0.296875" stop-color="#10BCE7"/>
<stop offset="0.3125" stop-color="#0FBCE7"/>
<stop offset="0.328125" stop-color="#0FBBE7"/>
<stop offset="0.34375" stop-color="#0FBBE7"/>
<stop offset="0.359375" stop-color="#0EBAE8"/>
<stop offset="0.375" stop-color="#0EB9E8"/>
<stop offset="0.390625" stop-color="#0EB9E8"/>
<stop offset="0.40625" stop-color="#0EB8E8"/>
<stop offset="0.421875" stop-color="#0DB8E8"/>
<stop offset="0.4375" stop-color="#0DB7E8"/>
<stop offset="0.453125" stop-color="#0DB6E8"/>
<stop offset="0.46875" stop-color="#0CB6E8"/>
<stop offset="0.484375" stop-color="#0CB5E8"/>
<stop offset="0.5" stop-color="#0CB5E9"/>
<stop offset="0.515625" stop-color="#0BB4E9"/>
<stop offset="0.53125" stop-color="#0BB4E9"/>
<stop offset="0.546875" stop-color="#0BB3E9"/>
<stop offset="0.5625" stop-color="#0BB2E9"/>
<stop offset="0.578125" stop-color="#0AB2E9"/>
<stop offset="0.59375" stop-color="#0AB1E9"/>
<stop offset="0.609375" stop-color="#0AB1E9"/>
<stop offset="0.625" stop-color="#09B0EA"/>
<stop offset="0.640625" stop-color="#09B0EA"/>
<stop offset="0.65625" stop-color="#09AFEA"/>
<stop offset="0.671875" stop-color="#08AEEA"/>
<stop offset="0.6875" stop-color="#08AEEA"/>
<stop offset="0.703125" stop-color="#08ADEA"/>
<stop offset="0.71875" stop-color="#07ADEA"/>
<stop offset="0.734375" stop-color="#07ACEA"/>
<stop offset="0.75" stop-color="#07ABEA"/>
<stop offset="0.765625" stop-color="#07ABEB"/>
<stop offset="0.78125" stop-color="#06AAEB"/>
<stop offset="0.796875" stop-color="#06AAEB"/>
<stop offset="0.8125" stop-color="#06A9EB"/>
<stop offset="0.828125" stop-color="#05A9EB"/>
<stop offset="0.84375" stop-color="#05A8EB"/>
<stop offset="0.859375" stop-color="#05A7EB"/>
<stop offset="0.875" stop-color="#04A7EB"/>
<stop offset="0.890625" stop-color="#04A6EC"/>
<stop offset="0.90625" stop-color="#04A6EC"/>
<stop offset="0.921875" stop-color="#04A5EC"/>
<stop offset="0.9375" stop-color="#03A4EC"/>
<stop offset="0.953125" stop-color="#03A4EC"/>
<stop offset="0.96875" stop-color="#03A3EB"/>
<stop offset="0.984375" stop-color="#04A2EB"/>
<stop offset="1" stop-color="#04A1EA"/>
</linearGradient>
<linearGradient id="paint3_linear_24_71" x1="41.4368" y1="52.4668" x2="41.4368" y2="25.9093" gradientUnits="userSpaceOnUse">
<stop stop-color="#15C7E5"/>
<stop offset="0.015625" stop-color="#15C7E5"/>
<stop offset="0.03125" stop-color="#15C6E5"/>
<stop offset="0.046875" stop-color="#15C6E5"/>
<stop offset="0.0625" stop-color="#14C5E5"/>
<stop offset="0.078125" stop-color="#14C4E5"/>
<stop offset="0.09375" stop-color="#14C4E6"/>
<stop offset="0.109375" stop-color="#13C3E6"/>
<stop offset="0.125" stop-color="#13C3E6"/>
<stop offset="0.140625" stop-color="#13C2E6"/>
<stop offset="0.15625" stop-color="#12C1E6"/>
<stop offset="0.171875" stop-color="#12C1E6"/>
<stop offset="0.1875" stop-color="#12C0E6"/>
<stop offset="0.203125" stop-color="#11C0E6"/>
<stop offset="0.21875" stop-color="#11BFE6"/>
<stop offset="0.234375" stop-color="#11BFE7"/>
<stop offset="0.25" stop-color="#11BEE7"/>
<stop offset="0.265625" stop-color="#10BDE7"/>
<stop offset="0.28125" stop-color="#10BDE7"/>
<stop offset="0.296875" stop-color="#10BCE7"/>
<stop offset="0.3125" stop-color="#0FBCE7"/>
<stop offset="0.328125" stop-color="#0FBBE7"/>
<stop offset="0.34375" stop-color="#0FBBE7"/>
<stop offset="0.359375" stop-color="#0EBAE8"/>
<stop offset="0.375" stop-color="#0EB9E8"/>
<stop offset="0.390625" stop-color="#0EB9E8"/>
<stop offset="0.40625" stop-color="#0EB8E8"/>
<stop offset="0.421875" stop-color="#0DB8E8"/>
<stop offset="0.4375" stop-color="#0DB7E8"/>
<stop offset="0.453125" stop-color="#0DB6E8"/>
<stop offset="0.46875" stop-color="#0CB6E8"/>
<stop offset="0.484375" stop-color="#0CB5E8"/>
<stop offset="0.5" stop-color="#0CB5E9"/>
<stop offset="0.515625" stop-color="#0BB4E9"/>
<stop offset="0.53125" stop-color="#0BB4E9"/>
<stop offset="0.546875" stop-color="#0BB3E9"/>
<stop offset="0.5625" stop-color="#0BB2E9"/>
<stop offset="0.578125" stop-color="#0AB2E9"/>
<stop offset="0.59375" stop-color="#0AB1E9"/>
<stop offset="0.609375" stop-color="#0AB1E9"/>
<stop offset="0.625" stop-color="#09B0EA"/>
<stop offset="0.640625" stop-color="#09AFEA"/>
<stop offset="0.65625" stop-color="#09AFEA"/>
<stop offset="0.671875" stop-color="#08AEEA"/>
<stop offset="0.6875" stop-color="#08AEEA"/>
<stop offset="0.703125" stop-color="#08ADEA"/>
<stop offset="0.71875" stop-color="#07ADEA"/>
<stop offset="0.734375" stop-color="#07ACEA"/>
<stop offset="0.75" stop-color="#07ABEA"/>
<stop offset="0.765625" stop-color="#07ABEB"/>
<stop offset="0.78125" stop-color="#06AAEB"/>
<stop offset="0.796875" stop-color="#06AAEB"/>
<stop offset="0.8125" stop-color="#06A9EB"/>
<stop offset="0.828125" stop-color="#05A9EB"/>
<stop offset="0.84375" stop-color="#05A8EB"/>
<stop offset="0.859375" stop-color="#05A7EB"/>
<stop offset="0.875" stop-color="#04A7EB"/>
<stop offset="0.890625" stop-color="#04A6EC"/>
<stop offset="0.90625" stop-color="#04A6EC"/>
<stop offset="0.921875" stop-color="#04A5EC"/>
<stop offset="0.9375" stop-color="#03A4EC"/>
<stop offset="0.953125" stop-color="#03A4EC"/>
<stop offset="0.96875" stop-color="#03A3EB"/>
<stop offset="0.984375" stop-color="#04A2EB"/>
<stop offset="1" stop-color="#04A1EA"/>
</linearGradient>
<linearGradient id="paint4_linear_24_71" x1="44.6754" y1="25.9093" x2="44.6754" y2="19.4318" gradientUnits="userSpaceOnUse">
<stop stop-color="white"/>
<stop offset="0.25" stop-color="white"/>
<stop offset="0.3125" stop-color="white"/>
<stop offset="0.375" stop-color="#FEFEFE"/>
<stop offset="0.4375" stop-color="#FDFEFE"/>
<stop offset="0.5" stop-color="#FCFDFE"/>
<stop offset="0.5625" stop-color="#FBFDFD"/>
<stop offset="0.625" stop-color="#FAFCFD"/>
<stop offset="0.6875" stop-color="#F9FCFC"/>
<stop offset="0.75" stop-color="#F8FBFC"/>
<stop offset="0.8125" stop-color="#F7FBFB"/>
<stop offset="0.875" stop-color="#F7FAFB"/>
<stop offset="0.9375" stop-color="#F6FAFA"/>
<stop offset="1" stop-color="#F5F9FA"/>
</linearGradient>
<linearGradient id="paint5_linear_24_71" x1="60.8684" y1="25.9093" x2="60.8684" y2="19.4318" gradientUnits="userSpaceOnUse">
<stop stop-color="white"/>
<stop offset="0.25" stop-color="white"/>
<stop offset="0.3125" stop-color="white"/>
<stop offset="0.375" stop-color="#FEFEFE"/>
<stop offset="0.4375" stop-color="#FDFEFE"/>
<stop offset="0.5" stop-color="#FCFDFE"/>
<stop offset="0.5625" stop-color="#FBFDFD"/>
<stop offset="0.625" stop-color="#FAFCFD"/>
<stop offset="0.6875" stop-color="#F9FCFC"/>
<stop offset="0.75" stop-color="#F8FBFC"/>
<stop offset="0.8125" stop-color="#F7FBFB"/>
<stop offset="0.875" stop-color="#F7FAFB"/>
<stop offset="0.9375" stop-color="#F6FAFA"/>
<stop offset="1" stop-color="#F5F9FA"/>
</linearGradient>
<linearGradient id="paint6_linear_24_71" x1="77.0613" y1="25.9093" x2="77.0613" y2="19.4318" gradientUnits="userSpaceOnUse">
<stop stop-color="white"/>
<stop offset="0.25" stop-color="white"/>
<stop offset="0.3125" stop-color="white"/>
<stop offset="0.375" stop-color="#FEFEFE"/>
<stop offset="0.4375" stop-color="#FDFEFE"/>
<stop offset="0.5" stop-color="#FCFDFE"/>
<stop offset="0.5625" stop-color="#FBFDFD"/>
<stop offset="0.625" stop-color="#FAFCFD"/>
<stop offset="0.6875" stop-color="#F9FCFC"/>
<stop offset="0.75" stop-color="#F8FBFC"/>
<stop offset="0.8125" stop-color="#F7FBFB"/>
<stop offset="0.875" stop-color="#F7FAFB"/>
<stop offset="0.9375" stop-color="#F6FAFA"/>
<stop offset="1" stop-color="#F5F9FA"/>
</linearGradient>
<clipPath id="clip0_24_71">
<rect width="177.313" height="79.8885" fill="white" transform="translate(125.782)"/>
</clipPath>
</defs>
</svg>
